<?xml version="1.0" encoding="utf-8"?>
<!-- Generator: Adobe Illustrator 26.1.0, SVG Export Plug-In . SVG Version: 6.00 Build 0)  -->
<svg version="1.1" id="Layer_1" xmlns="http://www.w3.org/2000/svg" xmlns:xlink="http://www.w3.org/1999/xlink" x="0px" y="0px"
	 viewBox="0 0 56 40" style="enable-background:new 0 0 56 40;" xml:space="preserve">
<style type="text/css">
	.st0{fill-rule:evenodd;clip-rule:evenodd;fill:#0078FF;}
</style>
<path class="st0" d="M39.1,0c-6,0-9.1,4.7-14,6.2c-4.8,1.5-7.9-0.1-10.8-0.1c-5.5,0-5.7,5.2-5.7,5.7c0,3,1.8,5.9,3.6,6.8v5.1
	c0,0.2,0,0.4,0.1,0.6c0.1,0.7,0.4,1.3,0.9,1.7c0.5,0.5,1,0.8,1.7,1c0,0,0,0,0,0s0,0,0,0c0.4,2,1.2,4,2.2,5.8c2.3,4.1,7,7.3,11.8,7.2
	c1.8,0,3.5-0.4,5-1.3c1.1-0.7,1.5-2.3,1.8-3.6c-5.5-0.7-6.5-4.4-6.5-4.6c0-0.1,0-0.3,0.1-0.4c0.1-0.1,0.2-0.2,0.3-0.2
	c0.1,0,0.3,0,0.4,0.1c0.1,0.1,0.2,0.2,0.2,0.3c0,0.1,0.9,3.3,5.8,3.9l0-0.1c0,0,0.3-1.3,0.4-2.1c0-0.2,0-0.5-0.1-0.7
	c-0.1-0.2-0.3-0.4-0.5-0.5c-0.5-0.3-1.2-1-1.1-1.5c0.1-0.4,0.6-0.4,0.9-0.1c0.8,0.5,2.4,1.6,3.5,1.6c0.6,0,1.1-0.3,1.2-1.2V15.7
	c-0.8-0.3-3.7-1.7-3.7-5.1c0-0.3,0.2-4.2,3.7-4.2c2.1,0,3.4,1.3,3.4,3c0,0.2-0.2,1.9-1.8,1.9c-0.1,0-0.2-0.1-0.3-0.2
	c-0.1-0.1-0.1-0.2-0.1-0.3c0-0.1,0-0.2,0.1-0.3c0.1-0.1,0.2-0.1,0.3-0.2c0.7,0,0.8-0.7,0.8-0.9c0-0.3-0.1-0.6-0.2-0.9
	C42.2,8.2,42,8,41.8,7.8c-0.5-0.3-1-0.4-1.5-0.4c-0.4,0-0.8,0.1-1.2,0.2c-1.4,0.6-1.7,2.2-1.6,3c0.1,2.8,2.4,4.2,4.3,4.2
	c5.3,0,5.6-5.7,5.6-7.9C47.4,2.7,43.2,0,39.1,0 M34.8,21.2c-0.1,0.3-0.3,0.6-0.5,0.8c-0.2,0.2-0.5,0.4-0.8,0.5
	c-0.4,0.1-0.8,0.2-1.2,0.2c-1.6,0-3-1-3.8-2.2c-0.1-0.1-0.1-0.2-0.1-0.3c0-0.1,0.1-0.2,0.2-0.3c0.1-0.1,0.2-0.1,0.3-0.1
	c0.1,0,0.2,0.1,0.3,0.2c0.8,1.2,2.4,2.1,3.9,1.6c0.2,0,0.3-0.1,0.5-0.3c0.1-0.1,0.2-0.3,0.3-0.4c0-0.1,0.1-0.1,0.1-0.2
	c0,0,0.1-0.1,0.1-0.1c0.1,0,0.1,0,0.2,0c0.1,0,0.1,0,0.2,0c0.1,0,0.2,0.1,0.3,0.2C34.8,21,34.8,21.1,34.8,21.2"/>
</svg>
